<svg width="208" height="288" viewBox="0 0 208 288" fill="none" xmlns="http://www.w3.org/2000/svg">
<g clip-path="url(#clip0_62_23)">
<rect width="208" height="288" fill="white"/>
<g clip-path="url(#clip1_62_23)">
<path d="M132.077 188.582H83.8838C68.1611 188.582 56.0029 184.529 47.4092 176.424C38.7178 168.221 34.3721 156.697 34.3721 141.854V79.1582C34.3721 64.3145 38.7178 52.8398 47.4092 44.7344C56.0029 36.5312 68.1611 32.4297 83.8838 32.4297H132.077V4.01172H84.7627C67.6729 4.01172 53.0732 6.99023 40.9639 12.9473C28.8545 18.9043 19.626 27.5957 13.2783 39.0215C6.93066 50.4473 3.75684 64.2168 3.75684 80.3301V140.682C3.75684 156.795 6.93066 170.564 13.2783 181.99C19.626 193.416 28.9033 202.107 41.1104 208.064C53.2197 214.021 67.8193 217 84.9092 217H132.077V188.582ZM152.292 4.01172H122.409V217H152.292V4.01172Z" fill="#F20FCC"/>
<path d="M24.3297 188.582H72.5231C88.2457 188.582 100.404 184.529 108.998 176.424C117.689 168.221 122.035 156.697 122.035 141.854V79.1582C122.035 64.3145 117.689 52.8398 108.998 44.7344C100.404 36.5312 88.2457 32.4297 72.5231 32.4297H24.3297V4.01172H71.6442C88.734 4.01172 103.334 6.99023 115.443 12.9473C127.552 18.9043 136.781 27.5957 143.129 39.0215C149.476 50.4473 152.65 64.2168 152.65 80.3301V140.682C152.65 156.795 149.476 170.564 143.129 181.99C136.781 193.416 127.504 202.107 115.297 208.064C103.187 214.021 88.5875 217 71.4977 217H24.3297V188.582ZM4.11487 4.01172H33.9977V217H4.11487V4.01172Z" fill="#180043"/>
<path d="M4.11275 216.997H9.44173V222.326H4.11275V216.997ZM4.11275 232.392H9.44173V270.805H4.11275V232.392ZM34.9024 286.422C31.9912 286.422 29.4008 285.88 27.131 284.794C24.8612 283.733 23.0973 282.228 21.839 280.279L25.4657 277.023C26.6252 278.528 28.0192 279.687 29.6475 280.501C31.2758 281.34 32.9904 281.759 34.7914 281.759C38.3687 281.759 41.1443 280.76 43.118 278.762C45.0917 276.788 46.0785 274 46.0785 270.398V232.392H51.4075V269.658C51.4075 273.186 50.7537 276.208 49.4461 278.725C48.1632 281.241 46.2882 283.153 43.8211 284.461C41.354 285.769 38.3811 286.422 34.9024 286.422ZM34.1993 271.361C31.4115 271.361 29.0184 270.756 27.02 269.547C25.0216 268.314 23.5043 266.537 22.4681 264.218C21.4319 261.899 20.9139 259.111 20.9139 255.855V247.491C20.9139 244.185 21.4196 241.36 22.4311 239.017C23.4427 236.673 24.9106 234.896 26.8349 233.688C28.784 232.454 31.1154 231.837 33.8292 231.837C36.7651 231.837 39.3309 232.392 41.5267 233.503C43.7471 234.588 45.5234 236.377 46.8556 238.869L46.0785 246.27C46.0785 244.592 45.6838 243.001 44.8943 241.496C44.1295 239.991 43.0069 238.77 41.5267 237.832C40.0464 236.895 38.3071 236.426 36.3087 236.426C33.1014 236.426 30.622 237.401 28.8703 239.35C27.1187 241.274 26.2428 244 26.2428 247.528V255.855C26.2428 259.309 27.1187 261.998 28.8703 263.922C30.622 265.822 33.1014 266.772 36.3087 266.772C38.2824 266.772 40.0094 266.291 41.4897 265.328C42.9699 264.366 44.1048 263.12 44.8943 261.591C45.6838 260.036 46.0785 258.42 46.0785 256.743L46.5966 264.773C45.6344 267.117 44.1048 268.807 42.0077 269.843C39.9107 270.855 37.3079 271.361 34.1993 271.361ZM63.9898 216.997H69.3188V222.326H63.9898V216.997ZM63.9898 232.392H69.3188V270.805H63.9898V232.392ZM91.893 270.99C88.7844 270.99 86.5023 270.139 85.0467 268.437C83.6158 266.71 82.9003 264.169 82.9003 260.814V221.216H88.2293V260.888C88.2293 262.541 88.5994 263.811 89.3395 264.699C90.0796 265.587 91.1775 266.032 92.6331 266.032H96.2598V270.99H91.893ZM78.9406 232.392H96.2598V236.981H78.9406V232.392ZM130.158 246.455C130.158 243.346 129.319 240.941 127.642 239.239C125.989 237.512 123.632 236.648 120.573 236.648C118.748 236.648 116.959 236.944 115.207 237.536C113.456 238.128 111.901 238.967 110.544 240.053L106.659 237.388C108.114 235.637 110.026 234.28 112.395 233.317C114.788 232.331 117.44 231.837 120.351 231.837C123.534 231.837 126.26 232.405 128.53 233.54C130.799 234.65 132.526 236.278 133.711 238.424C134.895 240.546 135.487 243.112 135.487 246.122V270.805H130.158V246.455ZM118.908 271.361C114.418 271.361 110.939 270.324 108.472 268.252C106.005 266.18 104.771 263.256 104.771 259.481C104.771 255.855 105.894 253.054 108.139 251.081C110.409 249.082 113.604 248.083 117.724 248.083H130.491L131.009 253.042H117.761C115.294 253.042 113.382 253.61 112.025 254.744C110.692 255.855 110.026 257.434 110.026 259.481C110.026 261.652 110.865 263.342 112.543 264.551C114.245 265.735 116.638 266.328 119.722 266.328C123.028 266.328 125.594 265.995 127.42 265.328C129.245 264.662 130.158 263.725 130.158 262.516L130.935 267.549C130.17 268.338 129.184 269.029 127.975 269.621C126.79 270.189 125.421 270.62 123.867 270.916C122.337 271.212 120.684 271.361 118.908 271.361ZM152.288 260.703C152.288 262.331 152.683 263.601 153.472 264.514C154.286 265.402 155.409 265.847 156.84 265.847H160.393V270.805H155.952C153.09 270.805 150.87 269.917 149.291 268.141C147.736 266.365 146.959 263.86 146.959 260.629V216.997H152.288V260.703Z" fill="#F20FCC"/>
<path d="M200.943 4.01806L200.943 10.7681L152.287 10.7681L152.287 4.01806L200.943 4.01806ZM192.224 32.6587C193.255 31.6587 194.037 30.3931 194.568 28.8618C195.099 27.3618 195.365 25.6118 195.365 23.6118C195.365 19.5493 194.271 16.3931 192.083 14.1431C189.927 11.8931 186.927 10.7681 183.083 10.7681L192.458 9.78369C195.365 11.5649 197.615 13.8931 199.208 16.7681C200.833 19.6743 201.646 22.8462 201.646 26.2837C201.646 28.5024 201.318 30.5024 200.662 32.2837C200.037 34.0962 199.099 35.6743 197.849 37.0181L192.224 32.6587ZM151.583 63.9712C151.583 59.4712 152.427 55.6274 154.115 52.4399C155.833 49.2524 158.318 46.8149 161.568 45.1274C164.849 43.4712 168.787 42.6431 173.38 42.6431L178.865 42.6431C183.677 42.6431 187.787 43.4399 191.193 45.0337C194.599 46.6587 197.193 49.0024 198.974 52.0649C200.755 55.1274 201.646 58.8149 201.646 63.1274C201.646 67.1899 200.771 70.6587 199.021 73.5337C197.271 76.4087 194.708 78.5962 191.333 80.0962C187.99 81.6274 183.958 82.3931 179.24 82.3931L173.662 82.3931L173.662 47.2368L179.755 47.2368L179.755 76.1118L180.224 76.1118C185.037 76.1118 188.755 74.9712 191.38 72.6899C194.037 70.4399 195.365 67.2524 195.365 63.1274C195.365 58.5962 193.974 55.0962 191.193 52.6274C188.412 50.1587 184.474 48.9243 179.38 48.9243L173.193 48.9243C168.318 48.9243 164.537 50.2368 161.849 52.8618C159.193 55.4868 157.865 59.1899 157.865 63.9712C157.865 66.2212 158.333 68.4399 159.271 70.6274C160.208 72.8462 161.537 74.8149 163.255 76.5337L158.849 81.1274C156.537 78.7524 154.74 76.0649 153.458 73.0649C152.208 70.0649 151.583 67.0337 151.583 63.9712ZM183.13 125.331C187.068 125.331 190.115 124.268 192.271 122.143C194.458 120.049 195.552 117.065 195.552 113.19C195.552 110.877 195.177 108.612 194.427 106.393C193.677 104.174 192.615 102.206 191.24 100.487L194.615 95.5649C196.833 97.4087 198.552 99.8306 199.771 102.831C201.021 105.862 201.646 109.221 201.646 112.909C201.646 116.94 200.927 120.393 199.49 123.268C198.083 126.143 196.021 128.331 193.302 129.831C190.615 131.331 187.365 132.081 183.552 132.081L152.287 132.081L152.287 125.331L183.13 125.331ZM151.583 111.081C151.583 105.393 152.896 100.987 155.521 97.8618C158.146 94.7368 161.849 93.1743 166.63 93.1743C171.224 93.1743 174.771 94.5962 177.271 97.4399C179.802 100.315 181.068 104.362 181.068 109.581L181.068 125.752L174.787 126.409L174.787 109.627C174.787 106.502 174.068 104.081 172.63 102.362C171.224 100.674 169.224 99.8306 166.63 99.8306C163.88 99.8306 161.74 100.893 160.208 103.018C158.708 105.174 157.958 108.206 157.958 112.112C157.958 116.299 158.38 119.549 159.224 121.862C160.068 124.174 161.255 125.331 162.787 125.331L156.412 126.315C155.412 125.346 154.537 124.096 153.787 122.565C153.068 121.065 152.521 119.331 152.146 117.362C151.771 115.424 151.583 113.331 151.583 111.081ZM181.771 207.549C186.083 207.549 189.427 206.518 191.802 204.456C194.177 202.393 195.365 199.487 195.365 195.737C195.365 191.956 194.208 189.018 191.896 186.924C189.583 184.862 186.333 183.831 182.146 183.831L189.177 180.971C193.208 182.534 196.287 184.706 198.412 187.487C200.568 190.268 201.646 193.612 201.646 197.518C201.646 201.049 200.865 204.065 199.302 206.565C197.771 209.096 195.521 211.018 192.552 212.331C189.583 213.643 186.005 214.299 181.818 214.299L152.287 214.299L152.287 207.549L181.771 207.549ZM200.943 146.612L200.943 153.362L152.287 153.362L152.287 146.612L200.943 146.612ZM181.771 177.081C186.083 177.081 189.427 176.049 191.802 173.987C194.177 171.956 195.365 169.049 195.365 165.268C195.365 161.487 194.287 158.549 192.13 156.456C190.005 154.393 186.99 153.362 183.083 153.362L192.458 152.377C195.708 154.002 198.052 156.127 199.49 158.752C200.927 161.377 201.646 164.44 201.646 167.94C201.646 171.284 200.865 174.143 199.302 176.518C197.771 178.924 195.521 180.737 192.552 181.956C189.583 183.206 186.005 183.831 181.818 183.831L152.287 183.831L152.287 177.081L181.771 177.081ZM151.583 245.565C151.583 242.94 151.833 240.393 152.333 237.924C152.865 235.456 153.63 233.143 154.63 230.987C155.63 228.862 156.833 226.971 158.24 225.315L162.974 229.206C161.193 231.862 159.802 234.612 158.802 237.456C157.833 240.299 157.349 243.002 157.349 245.565C157.349 250.221 158.146 253.815 159.74 256.346C161.333 258.909 163.583 260.19 166.49 260.19C168.615 260.19 170.208 259.565 171.271 258.315C172.333 257.096 173.052 255.549 173.427 253.674C173.802 251.799 174.115 249.19 174.365 245.846C174.396 245.534 174.412 245.206 174.412 244.862C174.443 244.549 174.474 244.237 174.505 243.924C174.505 243.799 174.505 243.674 174.505 243.549C174.537 243.424 174.552 243.299 174.552 243.174C174.865 239.956 175.333 237.268 175.958 235.112C176.583 232.956 177.755 231.143 179.474 229.674C181.193 228.237 183.677 227.518 186.927 227.518C190.052 227.518 192.708 228.268 194.896 229.768C197.083 231.299 198.755 233.518 199.912 236.424C201.068 239.362 201.646 242.877 201.646 246.971C201.646 249.096 201.427 251.221 200.99 253.346C200.583 255.471 199.974 257.502 199.162 259.44C198.38 261.409 197.427 263.206 196.302 264.831L191.662 260.94C193.005 258.627 194.037 256.221 194.755 253.721C195.505 251.221 195.88 248.877 195.88 246.69C195.88 242.596 195.115 239.424 193.583 237.174C192.052 234.924 189.896 233.799 187.115 233.799C185.177 233.799 183.724 234.409 182.755 235.627C181.818 236.846 181.193 238.377 180.88 240.221C180.568 242.096 180.318 244.659 180.13 247.909C180.13 248.034 180.115 248.159 180.083 248.284C180.083 248.44 180.083 248.581 180.083 248.706C180.083 248.799 180.083 248.893 180.083 248.987C180.083 249.081 180.068 249.174 180.037 249.268C179.849 252.674 179.427 255.565 178.771 257.94C178.115 260.346 176.818 262.362 174.88 263.987C172.943 265.612 170.146 266.424 166.49 266.424C163.333 266.424 160.646 265.612 158.427 263.987C156.208 262.362 154.505 259.987 153.318 256.862C152.162 253.737 151.583 249.971 151.583 245.565Z" fill="#180043"/>
</g>
</g>
<defs>
<clipPath id="clip0_62_23">
<rect width="208" height="288" fill="white"/>
</clipPath>
<clipPath id="clip1_62_23">
<rect width="270.287" height="367.805" fill="white" transform="translate(-23 -81)"/>
</clipPath>
</defs>
</svg>
