<?xml version="1.0" encoding="UTF-8" standalone="no"?><!DOCTYPE svg PUBLIC "-//W3C//DTD SVG 1.1//EN" "http://www.w3.org/Graphics/SVG/1.1/DTD/svg11.dtd"><svg width="100%" height="100%" viewBox="0 0 800 800" version="1.1" xmlns="http://www.w3.org/2000/svg" xmlns:xlink="http://www.w3.org/1999/xlink" xml:space="preserve" xmlns:serif="http://www.serif.com/" style="fill-rule:evenodd;clip-rule:evenodd;stroke-linejoin:round;stroke-miterlimit:2;"><path d="M666.667,33.333c55.23,0 100,44.772 100,100l-0,533.334c-0,55.23 -44.77,100 -100,100l-533.334,-0c-55.228,-0 -100,-44.77 -100,-100l0,-533.334c0,-55.228 44.772,-100 100,-100l533.334,0Zm-0,66.667c18.41,0 33.333,14.924 33.333,33.333l0,533.334c0,18.41 -14.923,33.333 -33.333,33.333l-166.667,0l0,-233.337l69.207,0c14.346,0 27.083,-9.18 31.623,-22.793l14.767,-44.3c5.396,-16.19 -6.654,-32.907 -23.717,-32.907l-91.88,0l-0,-66.666c-0,-16.666 16.667,-33.333 33.333,-33.333l66.667,0c18.41,0 33.333,-14.924 33.333,-33.333l0,-22.867c0,-10.767 -6.876,-20.421 -17.29,-23.168c-43.693,-11.531 -82.71,-11.531 -82.71,-11.531c-83.333,0 -133.333,57.566 -133.333,107.566l-0,83.332l-66.667,0c-18.409,0 -33.333,14.924 -33.333,33.334l-0,33.333c-0,18.41 14.924,33.333 33.333,33.333l66.667,0l-0,233.337l-266.667,0c-18.409,0 -33.333,-14.923 -33.333,-33.333l-0,-533.334c-0,-18.409 14.924,-33.333 33.333,-33.333l533.334,0Z" style="fill:#fff;stroke:#fff;stroke-width:1px;"/></svg>