<?xml version="1.0" encoding="UTF-8" standalone="no"?><!DOCTYPE svg PUBLIC "-//W3C//DTD SVG 1.1//EN" "http://www.w3.org/Graphics/SVG/1.1/DTD/svg11.dtd"><svg width="100%" height="100%" viewBox="0 0 800 800" version="1.1" xmlns="http://www.w3.org/2000/svg" xmlns:xlink="http://www.w3.org/1999/xlink" xml:space="preserve" xmlns:serif="http://www.serif.com/" style="fill-rule:evenodd;clip-rule:evenodd;stroke-linejoin:round;stroke-miterlimit:2;"><path d="M216.667,266.667c27.614,-0 50,-22.386 50,-50c-0,-27.615 -22.386,-50 -50,-50c-27.615,-0 -50,22.385 -50,50c-0,27.614 22.385,50 50,50Z" style="fill:#fff;fill-rule:nonzero;stroke:#fff;stroke-width:1px;"/><path d="M166.667,333.333c-0,-18.409 14.924,-33.333 33.333,-33.333l33.333,0c18.41,0 33.334,14.924 33.334,33.333l-0,266.667c-0,18.41 -14.924,33.333 -33.334,33.333l-33.333,0c-18.409,0 -33.333,-14.923 -33.333,-33.333l-0,-266.667Z" style="fill:#fff;fill-rule:nonzero;stroke:#fff;stroke-width:1px;"/><path d="M366.667,633.333l33.333,0c18.41,0 33.333,-14.923 33.333,-33.333l0,-150c0,-50 100,-83.333 100,-16.667l0,166.68c0,18.41 14.924,33.32 33.334,33.32l33.333,0c18.41,0 33.333,-14.923 33.333,-33.333l0,-200c0,-66.667 -50,-100 -116.666,-100c-66.667,0 -83.334,50 -83.334,50l0,-16.667c0,-18.409 -14.923,-33.333 -33.333,-33.333l-33.333,0c-18.41,0 -33.334,14.924 -33.334,33.333l0,266.667c0,18.41 14.924,33.333 33.334,33.333Z" style="fill:#fff;fill-rule:nonzero;stroke:#fff;stroke-width:1px;"/><path d="M666.667,33.333c55.23,0 100,44.772 100,100l-0,533.334c-0,55.23 -44.77,100 -100,100l-533.334,-0c-55.228,-0 -100,-44.77 -100,-100l0,-533.334c0,-55.228 44.772,-100 100,-100l533.334,0Zm-0,66.667c18.41,0 33.333,14.924 33.333,33.333l0,533.334c0,18.41 -14.923,33.333 -33.333,33.333l-533.334,0c-18.409,0 -33.333,-14.923 -33.333,-33.333l0,-533.334c0,-18.409 14.924,-33.333 33.333,-33.333l533.334,0Z" style="fill:#fff;stroke:#fff;stroke-width:1px;"/></svg>