<?xml version="1.0" encoding="UTF-8" standalone="no"?><!DOCTYPE svg PUBLIC "-//W3C//DTD SVG 1.1//EN" "http://www.w3.org/Graphics/SVG/1.1/DTD/svg11.dtd"><svg width="100%" height="100%" viewBox="0 0 800 800" version="1.1" xmlns="http://www.w3.org/2000/svg" xmlns:xlink="http://www.w3.org/1999/xlink" xml:space="preserve" xmlns:serif="http://www.serif.com/" style="fill-rule:evenodd;clip-rule:evenodd;stroke-linecap:round;stroke-linejoin:round;"><path d="M624.019,288.961c0.003,-29.742 -5.913,-59.189 -17.411,-86.62c-11.498,-27.43 -28.339,-52.295 -49.549,-73.146c-21.209,-20.851 -46.358,-37.27 -73.981,-48.299c-27.619,-11.028 -57.161,-16.445 -86.899,-15.935c-57.088,1.697 -111.444,24.832 -152.242,64.8c-40.799,39.969 -65.047,93.838 -67.918,150.879c-1.365,38.064 6.999,75.846 24.301,109.779c17.301,33.93 42.97,62.89 74.579,84.141c8.908,5.792 16.234,13.709 21.318,23.037c5.084,9.331 7.765,19.779 7.802,30.403l-0,48.96l192,0l0,-48.96c0,-10.595 2.634,-21.024 7.661,-30.352c5.027,-9.328 12.291,-17.261 21.139,-23.088c30.471,-20.445 55.456,-48.064 72.752,-80.426c17.299,-32.361 26.381,-68.48 26.448,-105.173Z" style="fill:none;fill-rule:nonzero;stroke:#fff;stroke-width:48px;"/><path d="M496,673.28c-27.696,20.771 -61.379,32 -96,32c-34.621,0 -68.305,-11.229 -96,-32" style="fill:none;fill-rule:nonzero;stroke:#fff;stroke-width:48px;"/></svg>