<?xml version="1.0" encoding="UTF-8" standalone="no"?><!DOCTYPE svg PUBLIC "-//W3C//DTD SVG 1.1//EN" "http://www.w3.org/Graphics/SVG/1.1/DTD/svg11.dtd"><svg width="100%" height="100%" viewBox="0 0 800 800" version="1.1" xmlns="http://www.w3.org/2000/svg" xmlns:xlink="http://www.w3.org/1999/xlink" xml:space="preserve" xmlns:serif="http://www.serif.com/" style="fill-rule:evenodd;clip-rule:evenodd;stroke-linejoin:round;stroke-miterlimit:2;"><path d="M725,100l-650,0c-41.425,0 -75,33.575 -75,75l0,400c0,41.425 33.575,75 75,75l225,0l0,75l-37.5,0c-6.9,0 -12.5,5.6 -12.5,12.5c0,6.9 5.6,12.5 12.5,12.5l275,0c6.9,0 12.5,-5.6 12.5,-12.5c0,-6.9 -5.6,-12.5 -12.5,-12.5l-37.5,0l0,-75l225,0c41.425,0 75,-33.575 75,-75l0,-400c0,-41.425 -33.575,-75 -75,-75Zm-250,625l-150,0l0,-75l150,0l0,75Zm300,-150c0,27.625 -22.375,50 -50,50l-650,0c-27.625,0 -50,-22.375 -50,-50l0,-400c0,-27.625 22.375,-50 50,-50l650,0c27.625,0 50,22.375 50,50l0,400Zm-129.875,-349.25c-19.55,-3.85 -36.875,7.5 -42.825,24.25l-152.3,0l0,-25l-100,0l0,25l-152.3,0c-5.95,-16.75 -23.3,-28.1 -42.825,-24.25c-14.325,2.825 -26,14.3 -29,28.6c-5.125,24.275 13.25,45.65 36.625,45.65c16.3,0 30.05,-10.475 35.2,-25l152.3,0l0,5.6c-109.7,22.425 -193.625,116.45 -199.65,231.15c-0.375,7.175 5.325,13.25 12.525,13.25c6.575,0 12.1,-5.1 12.425,-11.675c5.225,-101.625 78.35,-185.25 174.7,-207.225l0,18.9l100,0l0,-18.925c96.35,22 169.475,105.625 174.7,207.225c0.35,6.6 5.85,11.7 12.425,11.7c7.2,0 12.9,-6.075 12.525,-13.25c-6.025,-114.7 -89.95,-208.725 -199.65,-231.15l0,-5.6l152.3,0c5.175,14.525 18.9,25 35.2,25c23.375,0 41.75,-21.375 36.65,-45.65c-3.025,-14.3 -14.7,-25.775 -29.025,-28.6Zm-482.625,49.25c-6.9,0 -12.5,-5.6 -12.5,-12.5c0,-6.9 5.6,-12.5 12.5,-12.5c6.9,0 12.5,5.6 12.5,12.5c0,6.9 -5.6,12.5 -12.5,12.5Zm262.5,25l-50,0l0,-50l50,0l0,50Zm212.5,-25c-6.9,0 -12.5,-5.6 -12.5,-12.5c0,-6.9 5.6,-12.5 12.5,-12.5c6.9,0 12.5,5.6 12.5,12.5c0,6.9 -5.6,12.5 -12.5,12.5Z" style="fill:#fff;fill-rule:nonzero;stroke:#fff;stroke-width:1px;"/></svg>