<?xml version="1.0" encoding="UTF-8" standalone="no"?><!DOCTYPE svg PUBLIC "-//W3C//DTD SVG 1.1//EN" "http://www.w3.org/Graphics/SVG/1.1/DTD/svg11.dtd"><svg width="100%" height="100%" viewBox="0 0 800 800" version="1.1" xmlns="http://www.w3.org/2000/svg" xmlns:xlink="http://www.w3.org/1999/xlink" xml:space="preserve" xmlns:serif="http://www.serif.com/" style="fill-rule:evenodd;clip-rule:evenodd;stroke-linejoin:round;stroke-miterlimit:2;"><path d="M511.111,577.778c0,12.191 -10.031,22.222 -22.222,22.222l-311.111,0c-4.889,0 -9.556,4.444 -13.556,7.333l-75.333,59.334l-0,-355.556c-0,-12.191 10.031,-22.222 22.222,-22.222l85.778,-0l-0,-44.445l-85.778,0c-36.572,0 -66.667,30.095 -66.667,66.667l0,400c0.068,8.404 4.897,16.08 12.445,19.778c7.259,3.301 15.76,2.451 22.222,-2.222l114.445,-84.223l298.666,0c0.606,0.018 1.213,0.027 1.819,0.027c33.768,0 61.556,-27.787 61.556,-61.555c-0,-0.75 -0.014,-1.5 -0.041,-2.249l-0,-25.111l-44.445,-0l0,22.222Z" style="fill:#fff;fill-rule:nonzero;stroke:#fff;stroke-width:1px;"/><path d="M688.889,88.889l-377.778,-0c-36.572,-0 -66.667,30.094 -66.667,66.667l0,266.666c0,36.572 30.095,66.667 66.667,66.667l301.111,-0l106.222,82.444c6.421,4.747 14.924,5.682 22.223,2.445c7.704,-3.67 12.642,-11.466 12.666,-20l0,-398.222c0.02,-35.748 -28.716,-65.476 -64.444,-66.667Zm22.222,420.889l-77.778,-60.667c-3.878,-3.01 -8.646,-4.651 -13.555,-4.667l-308.667,0c-12.191,0 -22.222,-10.031 -22.222,-22.222l-0,-266.666c-0,-12.191 10.031,-22.223 22.222,-22.223l377.778,0c12.233,1.111 21.826,11.279 22.222,23.556l0,352.889Z" style="fill:#fff;fill-rule:nonzero;stroke:#fff;stroke-width:1px;"/><rect x="0" y="0" width="800" height="800" style="fill:#fff;fill-opacity:0;stroke:#fff;stroke-width:1px;"/></svg>